<?xml version="1.0" encoding="UTF-8" standalone="no"?>
<!DOCTYPE svg PUBLIC "-//W3C//DTD SVG 1.1//EN" "http://www.w3.org/Graphics/SVG/1.1/DTD/svg11.dtd">
<svg width="100%" height="100%" viewBox="0 0 110 110" version="1.1" xmlns="http://www.w3.org/2000/svg" xmlns:xlink="http://www.w3.org/1999/xlink" xml:space="preserve" xmlns:serif="http://www.serif.com/" style="fill-rule:evenodd;clip-rule:evenodd;stroke-linecap:round;stroke-linejoin:round;">
    <g transform="matrix(1,0,0,1,0.642292,5.691406)">
        <path d="M74.698,45.735C68.273,68.433 57.847,75.151 43.422,65.889" style="fill:none;fill-rule:nonzero;stroke:rgb(54,54,133);stroke-width:24px;"/>
    </g>
    <g transform="matrix(1,0,0,1,0.642292,5.691406)">
        <path d="M74.93,45.374C68.35,68.313 57.847,75.151 43.421,65.89" style="fill:none;fill-rule:nonzero;stroke:rgb(67,67,164);stroke-width:14.4px;"/>
    </g>
    <g transform="matrix(1,0,0,1,0.642292,5.691406)">
        <path d="M48.732,29.063C30.767,44.351 28.997,56.626 43.422,65.889" style="fill:none;fill-rule:nonzero;stroke:rgb(133,54,54);stroke-width:24px;"/>
    </g>
    <g transform="matrix(1,0,0,1,0.642292,5.691406)">
        <path d="M48.964,28.702C30.844,44.231 28.997,56.626 43.422,65.889" style="fill:none;fill-rule:nonzero;stroke:rgb(164,67,67);stroke-width:14.4px;"/>
    </g>
    <g transform="matrix(1,0,0,1,0.642292,5.691406)">
        <path d="M74.698,45.735C68.273,68.433 57.847,75.151 43.422,65.889" style="fill:none;fill-rule:nonzero;stroke:rgb(54,54,133);stroke-width:24px;stroke-linecap:butt;"/>
    </g>
    <g transform="matrix(1,0,0,1,0.642292,5.691406)">
        <path d="M74.93,45.374C68.35,68.313 57.847,75.151 43.421,65.89" style="fill:none;fill-rule:nonzero;stroke:rgb(67,67,164);stroke-width:14.4px;stroke-linecap:butt;"/>
    </g>
    <g transform="matrix(1,0,0,1,0.642292,5.691406)">
        <path d="M48.732,29.063C30.767,44.351 28.997,56.626 43.422,65.889" style="fill:none;fill-rule:nonzero;stroke:rgb(133,54,54);stroke-width:24px;stroke-linecap:butt;"/>
    </g>
    <g transform="matrix(1,0,0,1,0.642292,5.691406)">
        <path d="M48.964,28.702C30.844,44.231 28.997,56.626 43.422,65.889" style="fill:none;fill-rule:nonzero;stroke:rgb(164,67,67);stroke-width:14.4px;stroke-linecap:butt;"/>
    </g>
</svg>
